G04 #@! TF.GenerationSoftware,KiCad,Pcbnew,6.0.2+dfsg-1*
G04 #@! TF.CreationDate,2023-02-09T12:02:37+01:00*
G04 #@! TF.ProjectId,proto_cmod,70726f74-6f5f-4636-9d6f-642e6b696361,rev?*
G04 #@! TF.SameCoordinates,Original*
G04 #@! TF.FileFunction,Paste,Top*
G04 #@! TF.FilePolarity,Positive*
%FSLAX46Y46*%
G04 Gerber Fmt 4.6, Leading zero omitted, Abs format (unit mm)*
G04 Created by KiCad (PCBNEW 6.0.2+dfsg-1) date 2023-02-09 12:02:37*
%MOMM*%
%LPD*%
G01*
G04 APERTURE LIST*
%ADD10R,1.397000X0.889000*%
%ADD11R,0.635000X1.143000*%
%ADD12R,0.910000X1.220000*%
%ADD13R,0.797560X0.797560*%
%ADD14R,1.143000X0.635000*%
%ADD15R,0.900000X0.800000*%
G04 APERTURE END LIST*
D10*
G04 #@! TO.C,C104*
X122250000Y-120202500D03*
X122250000Y-118297500D03*
G04 #@! TD*
D11*
G04 #@! TO.C,R120*
X202012000Y-92700000D03*
X200488000Y-92700000D03*
G04 #@! TD*
D10*
G04 #@! TO.C,C107*
X156000000Y-67952500D03*
X156000000Y-66047500D03*
G04 #@! TD*
D11*
G04 #@! TO.C,R101*
X102488000Y-119250000D03*
X104012000Y-119250000D03*
G04 #@! TD*
D12*
G04 #@! TO.C,D105*
X189885000Y-55750000D03*
X186615000Y-55750000D03*
G04 #@! TD*
D13*
G04 #@! TO.C,D115*
X197500700Y-87700000D03*
X198999300Y-87700000D03*
G04 #@! TD*
G04 #@! TO.C,D114*
X197500700Y-85200000D03*
X198999300Y-85200000D03*
G04 #@! TD*
D14*
G04 #@! TO.C,R105*
X139500000Y-40012000D03*
X139500000Y-38488000D03*
G04 #@! TD*
D11*
G04 #@! TO.C,R114*
X202012000Y-77700000D03*
X200488000Y-77700000D03*
G04 #@! TD*
D14*
G04 #@! TO.C,R108*
X188500000Y-40012000D03*
X188500000Y-38488000D03*
G04 #@! TD*
D15*
G04 #@! TO.C,Q101*
X135250000Y-36300000D03*
X135250000Y-38200000D03*
X137250000Y-37250000D03*
G04 #@! TD*
D11*
G04 #@! TO.C,R103*
X100762000Y-57000000D03*
X99238000Y-57000000D03*
G04 #@! TD*
G04 #@! TO.C,R117*
X202012000Y-85200000D03*
X200488000Y-85200000D03*
G04 #@! TD*
D13*
G04 #@! TO.C,D117*
X197500700Y-92700000D03*
X198999300Y-92700000D03*
G04 #@! TD*
D12*
G04 #@! TO.C,D102*
X140635000Y-55250000D03*
X137365000Y-55250000D03*
G04 #@! TD*
D11*
G04 #@! TO.C,R116*
X202012000Y-82700000D03*
X200488000Y-82700000D03*
G04 #@! TD*
D12*
G04 #@! TO.C,D101*
X100865000Y-43250000D03*
X104135000Y-43250000D03*
G04 #@! TD*
D11*
G04 #@! TO.C,R121*
X202012000Y-95200000D03*
X200488000Y-95200000D03*
G04 #@! TD*
D12*
G04 #@! TO.C,D104*
X165385000Y-55750000D03*
X162115000Y-55750000D03*
G04 #@! TD*
D13*
G04 #@! TO.C,D111*
X197500700Y-77700000D03*
X198999300Y-77700000D03*
G04 #@! TD*
G04 #@! TO.C,D113*
X197500700Y-82700000D03*
X198999300Y-82700000D03*
G04 #@! TD*
D10*
G04 #@! TO.C,C105*
X113500000Y-102500000D03*
X113500000Y-104405000D03*
G04 #@! TD*
G04 #@! TO.C,C106*
X153500000Y-67952500D03*
X153500000Y-66047500D03*
G04 #@! TD*
D11*
G04 #@! TO.C,R118*
X202012000Y-87700000D03*
X200488000Y-87700000D03*
G04 #@! TD*
G04 #@! TO.C,R119*
X202012000Y-90200000D03*
X200488000Y-90200000D03*
G04 #@! TD*
D15*
G04 #@! TO.C,Q102*
X159500000Y-36300000D03*
X159500000Y-38200000D03*
X161500000Y-37250000D03*
G04 #@! TD*
D10*
G04 #@! TO.C,C101*
X122750000Y-136297500D03*
X122750000Y-138202500D03*
G04 #@! TD*
D14*
G04 #@! TO.C,R102*
X120750000Y-115488000D03*
X120750000Y-117012000D03*
G04 #@! TD*
G04 #@! TO.C,R107*
X164000000Y-40012000D03*
X164000000Y-38488000D03*
G04 #@! TD*
D13*
G04 #@! TO.C,D118*
X197500700Y-95200000D03*
X198999300Y-95200000D03*
G04 #@! TD*
D11*
G04 #@! TO.C,R115*
X202012000Y-80200000D03*
X200488000Y-80200000D03*
G04 #@! TD*
D13*
G04 #@! TO.C,D116*
X197500700Y-90200000D03*
X198999300Y-90200000D03*
G04 #@! TD*
D11*
G04 #@! TO.C,R104*
X105738000Y-57000000D03*
X107262000Y-57000000D03*
G04 #@! TD*
D13*
G04 #@! TO.C,D112*
X197500700Y-80200000D03*
X198999300Y-80200000D03*
G04 #@! TD*
M02*
