G04 #@! TF.GenerationSoftware,KiCad,Pcbnew,6.0.2+dfsg-1*
G04 #@! TF.CreationDate,2023-02-09T12:02:37+01:00*
G04 #@! TF.ProjectId,proto_cmod,70726f74-6f5f-4636-9d6f-642e6b696361,rev?*
G04 #@! TF.SameCoordinates,Original*
G04 #@! TF.FileFunction,Soldermask,Top*
G04 #@! TF.FilePolarity,Negative*
%FSLAX46Y46*%
G04 Gerber Fmt 4.6, Leading zero omitted, Abs format (unit mm)*
G04 Created by KiCad (PCBNEW 6.0.2+dfsg-1) date 2023-02-09 12:02:37*
%MOMM*%
%LPD*%
G01*
G04 APERTURE LIST*
G04 Aperture macros list*
%AMRoundRect*
0 Rectangle with rounded corners*
0 $1 Rounding radius*
0 $2 $3 $4 $5 $6 $7 $8 $9 X,Y pos of 4 corners*
0 Add a 4 corners polygon primitive as box body*
4,1,4,$2,$3,$4,$5,$6,$7,$8,$9,$2,$3,0*
0 Add four circle primitives for the rounded corners*
1,1,$1+$1,$2,$3*
1,1,$1+$1,$4,$5*
1,1,$1+$1,$6,$7*
1,1,$1+$1,$8,$9*
0 Add four rect primitives between the rounded corners*
20,1,$1+$1,$2,$3,$4,$5,0*
20,1,$1+$1,$4,$5,$6,$7,0*
20,1,$1+$1,$6,$7,$8,$9,0*
20,1,$1+$1,$8,$9,$2,$3,0*%
%AMFreePoly0*
4,1,57,0.281438,0.792513,0.314631,0.788760,0.324366,0.782642,0.335575,0.780064,0.361670,0.759195,0.389950,0.741421,0.741668,0.389704,0.759398,0.361385,0.780215,0.335261,0.782772,0.324050,0.788875,0.314303,0.792571,0.281098,0.800000,0.248529,0.800000,-0.248878,0.792513,-0.281438,0.788760,-0.314632,0.782641,-0.324367,0.780064,-0.335575,0.759196,-0.361669,0.741421,-0.389950,
0.389704,-0.741668,0.361385,-0.759398,0.335261,-0.780215,0.324050,-0.782772,0.314303,-0.788875,0.281098,-0.792571,0.248529,-0.800000,-0.248878,-0.800000,-0.281438,-0.792513,-0.314632,-0.788760,-0.324367,-0.782641,-0.335575,-0.780064,-0.361669,-0.759196,-0.389950,-0.741421,-0.741668,-0.389704,-0.759398,-0.361385,-0.780215,-0.335261,-0.782772,-0.324050,-0.788875,-0.314303,-0.792571,-0.281098,
-0.800000,-0.248529,-0.800000,0.248878,-0.792513,0.281438,-0.788760,0.314631,-0.782642,0.324366,-0.780064,0.335575,-0.759195,0.361670,-0.741421,0.389950,-0.389704,0.741668,-0.361385,0.759398,-0.335261,0.780215,-0.324050,0.782772,-0.314303,0.788875,-0.281098,0.792571,-0.248529,0.800000,0.248878,0.800000,0.281438,0.792513,0.281438,0.792513,$1*%
G04 Aperture macros list end*
%ADD10C,0.300000*%
%ADD11C,3.800000*%
%ADD12C,1.600000*%
%ADD13FreePoly0,0.000000*%
%ADD14RoundRect,0.200000X-0.600000X-0.600000X0.600000X-0.600000X0.600000X0.600000X-0.600000X0.600000X0*%
%ADD15C,3.450000*%
%ADD16R,1.397000X0.889000*%
%ADD17R,0.635000X1.143000*%
%ADD18R,0.910000X1.220000*%
%ADD19C,2.500000*%
%ADD20R,0.797560X0.797560*%
%ADD21R,1.143000X0.635000*%
%ADD22R,0.900000X0.800000*%
%ADD23C,1.524000*%
%ADD24R,1.524000X1.524000*%
%ADD25C,1.701800*%
%ADD26C,4.000000*%
%ADD27C,2.000000*%
%ADD28C,3.500000*%
%ADD29C,1.800000*%
%ADD30R,2.000000X2.000000*%
%ADD31C,2.800000*%
G04 APERTURE END LIST*
D10*
X201071428Y-108285714D02*
X202571428Y-108285714D01*
X201857142Y-108285714D02*
X201857142Y-109142857D01*
X201071428Y-109142857D02*
X202571428Y-109142857D01*
X201071428Y-110500000D02*
X201857142Y-110500000D01*
X202000000Y-110428571D01*
X202071428Y-110285714D01*
X202071428Y-110000000D01*
X202000000Y-109857142D01*
X201142857Y-110500000D02*
X201071428Y-110357142D01*
X201071428Y-110000000D01*
X201142857Y-109857142D01*
X201285714Y-109785714D01*
X201428571Y-109785714D01*
X201571428Y-109857142D01*
X201642857Y-110000000D01*
X201642857Y-110357142D01*
X201714285Y-110500000D01*
X201071428Y-111214285D02*
X202071428Y-111214285D01*
X201785714Y-111214285D02*
X201928571Y-111285714D01*
X202000000Y-111357142D01*
X202071428Y-111500000D01*
X202071428Y-111642857D01*
X201071428Y-112142857D02*
X202571428Y-112142857D01*
X202000000Y-112142857D02*
X202071428Y-112285714D01*
X202071428Y-112571428D01*
X202000000Y-112714285D01*
X201928571Y-112785714D01*
X201785714Y-112857142D01*
X201357142Y-112857142D01*
X201214285Y-112785714D01*
X201142857Y-112714285D01*
X201071428Y-112571428D01*
X201071428Y-112285714D01*
X201142857Y-112142857D01*
X201071428Y-113500000D02*
X202071428Y-113500000D01*
X202571428Y-113500000D02*
X202500000Y-113428571D01*
X202428571Y-113500000D01*
X202500000Y-113571428D01*
X202571428Y-113500000D01*
X202428571Y-113500000D01*
X202071428Y-114214285D02*
X201071428Y-114214285D01*
X201928571Y-114214285D02*
X202000000Y-114285714D01*
X202071428Y-114428571D01*
X202071428Y-114642857D01*
X202000000Y-114785714D01*
X201857142Y-114857142D01*
X201071428Y-114857142D01*
X202071428Y-116214285D02*
X200857142Y-116214285D01*
X200714285Y-116142857D01*
X200642857Y-116071428D01*
X200571428Y-115928571D01*
X200571428Y-115714285D01*
X200642857Y-115571428D01*
X201142857Y-116214285D02*
X201071428Y-116071428D01*
X201071428Y-115785714D01*
X201142857Y-115642857D01*
X201214285Y-115571428D01*
X201357142Y-115500000D01*
X201785714Y-115500000D01*
X201928571Y-115571428D01*
X202000000Y-115642857D01*
X202071428Y-115785714D01*
X202071428Y-116071428D01*
X202000000Y-116214285D01*
X201142857Y-117500000D02*
X201071428Y-117357142D01*
X201071428Y-117071428D01*
X201142857Y-116928571D01*
X201285714Y-116857142D01*
X201857142Y-116857142D01*
X202000000Y-116928571D01*
X202071428Y-117071428D01*
X202071428Y-117357142D01*
X202000000Y-117500000D01*
X201857142Y-117571428D01*
X201714285Y-117571428D01*
X201571428Y-116857142D01*
X201071428Y-118214285D02*
X202071428Y-118214285D01*
X201785714Y-118214285D02*
X201928571Y-118285714D01*
X202000000Y-118357142D01*
X202071428Y-118500000D01*
X202071428Y-118642857D01*
X201142857Y-120214285D02*
X201071428Y-120428571D01*
X201071428Y-120785714D01*
X201142857Y-120928571D01*
X201214285Y-121000000D01*
X201357142Y-121071428D01*
X201500000Y-121071428D01*
X201642857Y-121000000D01*
X201714285Y-120928571D01*
X201785714Y-120785714D01*
X201857142Y-120500000D01*
X201928571Y-120357142D01*
X202000000Y-120285714D01*
X202142857Y-120214285D01*
X202285714Y-120214285D01*
X202428571Y-120285714D01*
X202500000Y-120357142D01*
X202571428Y-120500000D01*
X202571428Y-120857142D01*
X202500000Y-121071428D01*
X202071428Y-121571428D02*
X201071428Y-121928571D01*
X202071428Y-122285714D02*
X201071428Y-121928571D01*
X200714285Y-121785714D01*
X200642857Y-121714285D01*
X200571428Y-121571428D01*
X202071428Y-122857142D02*
X201071428Y-122857142D01*
X201928571Y-122857142D02*
X202000000Y-122928571D01*
X202071428Y-123071428D01*
X202071428Y-123285714D01*
X202000000Y-123428571D01*
X201857142Y-123500000D01*
X201071428Y-123500000D01*
X202071428Y-124000000D02*
X202071428Y-124571428D01*
X202571428Y-124214285D02*
X201285714Y-124214285D01*
X201142857Y-124285714D01*
X201071428Y-124428571D01*
X201071428Y-124571428D01*
X201071428Y-125071428D02*
X202571428Y-125071428D01*
X201071428Y-125714285D02*
X201857142Y-125714285D01*
X202000000Y-125642857D01*
X202071428Y-125500000D01*
X202071428Y-125285714D01*
X202000000Y-125142857D01*
X201928571Y-125071428D01*
D11*
G04 #@! TO.C,A101*
X146950000Y-64130000D03*
X135550000Y-111130000D03*
X146950000Y-111130000D03*
X135550000Y-64130000D03*
D12*
X132360000Y-63500000D03*
D13*
X132360000Y-63500000D03*
D12*
X132360000Y-66040000D03*
D14*
X132360000Y-68580000D03*
D12*
X132360000Y-71120000D03*
X132360000Y-73660000D03*
X132360000Y-76200000D03*
X132360000Y-78740000D03*
D14*
X132360000Y-81280000D03*
D12*
X132360000Y-83820000D03*
X132360000Y-86360000D03*
X132360000Y-88900000D03*
X132360000Y-91440000D03*
D14*
X132360000Y-93980000D03*
D12*
X132360000Y-96520000D03*
X132360000Y-99060000D03*
X132360000Y-101600000D03*
X132360000Y-104140000D03*
D14*
X132360000Y-106680000D03*
D12*
X132360000Y-109220000D03*
X132360000Y-111760000D03*
X150140000Y-111760000D03*
X150140000Y-109220000D03*
D14*
X150140000Y-106680000D03*
D12*
X150140000Y-104140000D03*
X150140000Y-101600000D03*
X150140000Y-99060000D03*
X150140000Y-96520000D03*
D14*
X150140000Y-93980000D03*
D12*
X150140000Y-91440000D03*
X150140000Y-88900000D03*
X150140000Y-86360000D03*
X150140000Y-83820000D03*
D14*
X150140000Y-81280000D03*
D12*
X150140000Y-78740000D03*
X150140000Y-76200000D03*
X150140000Y-73660000D03*
X150140000Y-71120000D03*
D14*
X150140000Y-68580000D03*
D12*
X150140000Y-66040000D03*
X150140000Y-63500000D03*
G04 #@! TD*
D15*
G04 #@! TO.C,REF\u002A\u002A*
X92000000Y-37000000D03*
G04 #@! TD*
D16*
G04 #@! TO.C,C104*
X122250000Y-120202500D03*
X122250000Y-118297500D03*
G04 #@! TD*
D17*
G04 #@! TO.C,R120*
X202012000Y-92700000D03*
X200488000Y-92700000D03*
G04 #@! TD*
D16*
G04 #@! TO.C,C107*
X156000000Y-67952500D03*
X156000000Y-66047500D03*
G04 #@! TD*
D17*
G04 #@! TO.C,R101*
X102488000Y-119250000D03*
X104012000Y-119250000D03*
G04 #@! TD*
D18*
G04 #@! TO.C,D105*
X189885000Y-55750000D03*
X186615000Y-55750000D03*
G04 #@! TD*
D15*
G04 #@! TO.C,REF\u002A\u002A*
X92000000Y-135000000D03*
G04 #@! TD*
D19*
G04 #@! TO.C,U103*
X97250000Y-127550000D03*
X104750000Y-127550000D03*
X112250000Y-127550000D03*
X99750000Y-125050000D03*
X109750000Y-125050000D03*
X102250000Y-137450000D03*
X107250000Y-137450000D03*
G04 #@! TD*
D20*
G04 #@! TO.C,D115*
X197500700Y-87700000D03*
X198999300Y-87700000D03*
G04 #@! TD*
G04 #@! TO.C,D114*
X197500700Y-85200000D03*
X198999300Y-85200000D03*
G04 #@! TD*
D21*
G04 #@! TO.C,R105*
X139500000Y-40012000D03*
X139500000Y-38488000D03*
G04 #@! TD*
D17*
G04 #@! TO.C,R114*
X202012000Y-77700000D03*
X200488000Y-77700000D03*
G04 #@! TD*
D21*
G04 #@! TO.C,R108*
X188500000Y-40012000D03*
X188500000Y-38488000D03*
G04 #@! TD*
D22*
G04 #@! TO.C,Q101*
X135250000Y-36300000D03*
X135250000Y-38200000D03*
X137250000Y-37250000D03*
G04 #@! TD*
D17*
G04 #@! TO.C,R103*
X100762000Y-57000000D03*
X99238000Y-57000000D03*
G04 #@! TD*
D15*
G04 #@! TO.C,REF\u002A\u002A*
X200000000Y-37000000D03*
G04 #@! TD*
D17*
G04 #@! TO.C,R117*
X202012000Y-85200000D03*
X200488000Y-85200000D03*
G04 #@! TD*
D23*
G04 #@! TO.C,U104*
X109690000Y-115480000D03*
X109690000Y-118020000D03*
X117310000Y-118020000D03*
X117310000Y-115480000D03*
G04 #@! TD*
D20*
G04 #@! TO.C,D117*
X197500700Y-92700000D03*
X198999300Y-92700000D03*
G04 #@! TD*
D18*
G04 #@! TO.C,D102*
X140635000Y-55250000D03*
X137365000Y-55250000D03*
G04 #@! TD*
D17*
G04 #@! TO.C,R116*
X202012000Y-82700000D03*
X200488000Y-82700000D03*
G04 #@! TD*
D18*
G04 #@! TO.C,D101*
X100865000Y-43250000D03*
X104135000Y-43250000D03*
G04 #@! TD*
D17*
G04 #@! TO.C,R121*
X202012000Y-95200000D03*
X200488000Y-95200000D03*
G04 #@! TD*
D18*
G04 #@! TO.C,D104*
X165385000Y-55750000D03*
X162115000Y-55750000D03*
G04 #@! TD*
D20*
G04 #@! TO.C,D111*
X197500700Y-77700000D03*
X198999300Y-77700000D03*
G04 #@! TD*
G04 #@! TO.C,D113*
X197500700Y-82700000D03*
X198999300Y-82700000D03*
G04 #@! TD*
D24*
G04 #@! TO.C,U102*
X120000000Y-138350000D03*
D23*
X120000000Y-135810000D03*
X120000000Y-133270000D03*
X120000000Y-130730000D03*
X120000000Y-128190000D03*
X120000000Y-125650000D03*
G04 #@! TD*
D16*
G04 #@! TO.C,C105*
X113500000Y-102500000D03*
X113500000Y-104405000D03*
G04 #@! TD*
G04 #@! TO.C,C106*
X153500000Y-67952500D03*
X153500000Y-66047500D03*
G04 #@! TD*
D17*
G04 #@! TO.C,R118*
X202012000Y-87700000D03*
X200488000Y-87700000D03*
G04 #@! TD*
G04 #@! TO.C,R119*
X202012000Y-90200000D03*
X200488000Y-90200000D03*
G04 #@! TD*
D15*
G04 #@! TO.C,REF\u002A\u002A*
X200000000Y-135000000D03*
G04 #@! TD*
D22*
G04 #@! TO.C,Q102*
X159500000Y-36300000D03*
X159500000Y-38200000D03*
X161500000Y-37250000D03*
G04 #@! TD*
D16*
G04 #@! TO.C,C101*
X122750000Y-136297500D03*
X122750000Y-138202500D03*
G04 #@! TD*
D23*
G04 #@! TO.C,U101*
X169380000Y-77640000D03*
X169380000Y-80180000D03*
X169380000Y-82720000D03*
X169380000Y-85260000D03*
X169380000Y-87800000D03*
X169380000Y-90340000D03*
X169380000Y-92880000D03*
X169380000Y-95420000D03*
X169380000Y-97960000D03*
X169380000Y-115740000D03*
X169380000Y-118280000D03*
X169380000Y-120820000D03*
X169380000Y-123360000D03*
X169380000Y-125900000D03*
X169380000Y-128440000D03*
X169380000Y-130980000D03*
X169380000Y-133520000D03*
X169380000Y-136060000D03*
X184620000Y-136060000D03*
X184620000Y-133520000D03*
X184620000Y-130980000D03*
X184620000Y-128440000D03*
X184620000Y-125900000D03*
X184620000Y-123360000D03*
X184620000Y-120820000D03*
X184620000Y-118280000D03*
X184620000Y-115740000D03*
X184620000Y-97960000D03*
X184620000Y-95420000D03*
X184620000Y-92880000D03*
X184620000Y-90340000D03*
X184620000Y-87800000D03*
X184620000Y-85260000D03*
X184620000Y-82720000D03*
X184620000Y-80180000D03*
X184620000Y-77640000D03*
G04 #@! TD*
D21*
G04 #@! TO.C,R102*
X120750000Y-115488000D03*
X120750000Y-117012000D03*
G04 #@! TD*
G04 #@! TO.C,R107*
X164000000Y-40012000D03*
X164000000Y-38488000D03*
G04 #@! TD*
D20*
G04 #@! TO.C,D118*
X197500700Y-95200000D03*
X198999300Y-95200000D03*
G04 #@! TD*
D17*
G04 #@! TO.C,R115*
X202012000Y-80200000D03*
X200488000Y-80200000D03*
G04 #@! TD*
D20*
G04 #@! TO.C,D116*
X197500700Y-90200000D03*
X198999300Y-90200000D03*
G04 #@! TD*
D17*
G04 #@! TO.C,R104*
X105738000Y-57000000D03*
X107262000Y-57000000D03*
G04 #@! TD*
D20*
G04 #@! TO.C,D112*
X197500700Y-80200000D03*
X198999300Y-80200000D03*
G04 #@! TD*
D25*
G04 #@! TO.C,S102*
X167830000Y-47250000D03*
D26*
X162750000Y-47250000D03*
D25*
X157670000Y-47250000D03*
D27*
X158940000Y-49790000D03*
X165290000Y-52330000D03*
X161480000Y-42170000D03*
X164020000Y-42170000D03*
G04 #@! TD*
D28*
G04 #@! TO.C,J101*
X191750000Y-66000000D03*
X191750000Y-110000000D03*
X115670000Y-66000000D03*
X115670000Y-110000000D03*
D29*
X110750000Y-104510000D03*
X110750000Y-101970000D03*
X110750000Y-99430000D03*
X110750000Y-96890000D03*
X110750000Y-94350000D03*
X110750000Y-91810000D03*
X110750000Y-89270000D03*
X110750000Y-86730000D03*
X110750000Y-84190000D03*
X110750000Y-81650000D03*
X110750000Y-79110000D03*
X110750000Y-76570000D03*
X110750000Y-74030000D03*
X110750000Y-71490000D03*
G04 #@! TD*
D30*
G04 #@! TO.C,SW101*
X105750000Y-54500000D03*
D27*
X100750000Y-54500000D03*
X103250000Y-54500000D03*
D31*
X108850000Y-47000000D03*
X97650000Y-47000000D03*
D27*
X105750000Y-40000000D03*
X100750000Y-40000000D03*
G04 #@! TD*
D26*
G04 #@! TO.C,S108*
X138250000Y-47250000D03*
D25*
X133170000Y-47250000D03*
X143330000Y-47250000D03*
D27*
X134440000Y-49790000D03*
X140790000Y-52330000D03*
X136980000Y-42170000D03*
X139520000Y-42170000D03*
G04 #@! TD*
D25*
G04 #@! TO.C,S103*
X192330000Y-47250000D03*
D26*
X187250000Y-47250000D03*
D25*
X182170000Y-47250000D03*
D27*
X183440000Y-49790000D03*
X189790000Y-52330000D03*
X185980000Y-42170000D03*
X188520000Y-42170000D03*
G04 #@! TD*
M02*
