G04 #@! TF.GenerationSoftware,KiCad,Pcbnew,6.0.2+dfsg-1*
G04 #@! TF.CreationDate,2023-02-11T22:05:12+01:00*
G04 #@! TF.ProjectId,pico_probe_pcb,7069636f-5f70-4726-9f62-655f7063622e,rev?*
G04 #@! TF.SameCoordinates,Original*
G04 #@! TF.FileFunction,Legend,Bot*
G04 #@! TF.FilePolarity,Positive*
%FSLAX46Y46*%
G04 Gerber Fmt 4.6, Leading zero omitted, Abs format (unit mm)*
G04 Created by KiCad (PCBNEW 6.0.2+dfsg-1) date 2023-02-11 22:05:12*
%MOMM*%
%LPD*%
G01*
G04 APERTURE LIST*
%ADD10C,0.150000*%
%ADD11C,0.120000*%
G04 APERTURE END LIST*
D10*
G04 #@! TO.C,A101*
X155656071Y-65005004D02*
X155259880Y-65005004D01*
X155473214Y-65309766D01*
X155381785Y-65309766D01*
X155320833Y-65347861D01*
X155290357Y-65385957D01*
X155259880Y-65462147D01*
X155259880Y-65652623D01*
X155290357Y-65728814D01*
X155320833Y-65766909D01*
X155381785Y-65805004D01*
X155564642Y-65805004D01*
X155625595Y-65766909D01*
X155656071Y-65728814D01*
X154894166Y-65347861D02*
X154955119Y-65309766D01*
X154985595Y-65271671D01*
X155016071Y-65195480D01*
X155016071Y-65157385D01*
X154985595Y-65081195D01*
X154955119Y-65043100D01*
X154894166Y-65005004D01*
X154772261Y-65005004D01*
X154711309Y-65043100D01*
X154680833Y-65081195D01*
X154650357Y-65157385D01*
X154650357Y-65195480D01*
X154680833Y-65271671D01*
X154711309Y-65309766D01*
X154772261Y-65347861D01*
X154894166Y-65347861D01*
X154955119Y-65385957D01*
X154985595Y-65424052D01*
X155016071Y-65500242D01*
X155016071Y-65652623D01*
X154985595Y-65728814D01*
X154955119Y-65766909D01*
X154894166Y-65805004D01*
X154772261Y-65805004D01*
X154711309Y-65766909D01*
X154680833Y-65728814D01*
X154650357Y-65652623D01*
X154650357Y-65500242D01*
X154680833Y-65424052D01*
X154711309Y-65385957D01*
X154772261Y-65347861D01*
X155625595Y-103181195D02*
X155595119Y-103143100D01*
X155534166Y-103105004D01*
X155381785Y-103105004D01*
X155320833Y-103143100D01*
X155290357Y-103181195D01*
X155259880Y-103257385D01*
X155259880Y-103333576D01*
X155290357Y-103447861D01*
X155656071Y-103905004D01*
X155259880Y-103905004D01*
X155046547Y-103105004D02*
X154650357Y-103105004D01*
X154863690Y-103409766D01*
X154772261Y-103409766D01*
X154711309Y-103447861D01*
X154680833Y-103485957D01*
X154650357Y-103562147D01*
X154650357Y-103752623D01*
X154680833Y-103828814D01*
X154711309Y-103866909D01*
X154772261Y-103905004D01*
X154955119Y-103905004D01*
X155016071Y-103866909D01*
X155046547Y-103828814D01*
X140284404Y-60725004D02*
X140650119Y-60725004D01*
X140467261Y-60725004D02*
X140467261Y-59925004D01*
X140528214Y-60039290D01*
X140589166Y-60115480D01*
X140650119Y-60153576D01*
X155625595Y-90481195D02*
X155595119Y-90443100D01*
X155534166Y-90405004D01*
X155381785Y-90405004D01*
X155320833Y-90443100D01*
X155290357Y-90481195D01*
X155259880Y-90557385D01*
X155259880Y-90633576D01*
X155290357Y-90747861D01*
X155656071Y-91205004D01*
X155259880Y-91205004D01*
X154894166Y-90747861D02*
X154955119Y-90709766D01*
X154985595Y-90671671D01*
X155016071Y-90595480D01*
X155016071Y-90557385D01*
X154985595Y-90481195D01*
X154955119Y-90443100D01*
X154894166Y-90405004D01*
X154772261Y-90405004D01*
X154711309Y-90443100D01*
X154680833Y-90481195D01*
X154650357Y-90557385D01*
X154650357Y-90595480D01*
X154680833Y-90671671D01*
X154711309Y-90709766D01*
X154772261Y-90747861D01*
X154894166Y-90747861D01*
X154955119Y-90785957D01*
X154985595Y-90824052D01*
X155016071Y-90900242D01*
X155016071Y-91052623D01*
X154985595Y-91128814D01*
X154955119Y-91166909D01*
X154894166Y-91205004D01*
X154772261Y-91205004D01*
X154711309Y-91166909D01*
X154680833Y-91128814D01*
X154650357Y-91052623D01*
X154650357Y-90900242D01*
X154680833Y-90824052D01*
X154711309Y-90785957D01*
X154772261Y-90747861D01*
X140893928Y-103905004D02*
X141259642Y-103905004D01*
X141076785Y-103905004D02*
X141076785Y-103105004D01*
X141137738Y-103219290D01*
X141198690Y-103295480D01*
X141259642Y-103333576D01*
X140528214Y-103447861D02*
X140589166Y-103409766D01*
X140619642Y-103371671D01*
X140650119Y-103295480D01*
X140650119Y-103257385D01*
X140619642Y-103181195D01*
X140589166Y-103143100D01*
X140528214Y-103105004D01*
X140406309Y-103105004D01*
X140345357Y-103143100D01*
X140314880Y-103181195D01*
X140284404Y-103257385D01*
X140284404Y-103295480D01*
X140314880Y-103371671D01*
X140345357Y-103409766D01*
X140406309Y-103447861D01*
X140528214Y-103447861D01*
X140589166Y-103485957D01*
X140619642Y-103524052D01*
X140650119Y-103600242D01*
X140650119Y-103752623D01*
X140619642Y-103828814D01*
X140589166Y-103866909D01*
X140528214Y-103905004D01*
X140406309Y-103905004D01*
X140345357Y-103866909D01*
X140314880Y-103828814D01*
X140284404Y-103752623D01*
X140284404Y-103600242D01*
X140314880Y-103524052D01*
X140345357Y-103485957D01*
X140406309Y-103447861D01*
X140893928Y-91205004D02*
X141259642Y-91205004D01*
X141076785Y-91205004D02*
X141076785Y-90405004D01*
X141137738Y-90519290D01*
X141198690Y-90595480D01*
X141259642Y-90633576D01*
X140680595Y-90405004D02*
X140284404Y-90405004D01*
X140497738Y-90709766D01*
X140406309Y-90709766D01*
X140345357Y-90747861D01*
X140314880Y-90785957D01*
X140284404Y-90862147D01*
X140284404Y-91052623D01*
X140314880Y-91128814D01*
X140345357Y-91166909D01*
X140406309Y-91205004D01*
X140589166Y-91205004D01*
X140650119Y-91166909D01*
X140680595Y-91128814D01*
X140680595Y-65005004D02*
X140284404Y-65005004D01*
X140497738Y-65309766D01*
X140406309Y-65309766D01*
X140345357Y-65347861D01*
X140314880Y-65385957D01*
X140284404Y-65462147D01*
X140284404Y-65652623D01*
X140314880Y-65728814D01*
X140345357Y-65766909D01*
X140406309Y-65805004D01*
X140589166Y-65805004D01*
X140650119Y-65766909D01*
X140680595Y-65728814D01*
X140650119Y-62541195D02*
X140619642Y-62503100D01*
X140558690Y-62465004D01*
X140406309Y-62465004D01*
X140345357Y-62503100D01*
X140314880Y-62541195D01*
X140284404Y-62617385D01*
X140284404Y-62693576D01*
X140314880Y-62807861D01*
X140680595Y-63265004D01*
X140284404Y-63265004D01*
X140528214Y-78047861D02*
X140589166Y-78009766D01*
X140619642Y-77971671D01*
X140650119Y-77895480D01*
X140650119Y-77857385D01*
X140619642Y-77781195D01*
X140589166Y-77743100D01*
X140528214Y-77705004D01*
X140406309Y-77705004D01*
X140345357Y-77743100D01*
X140314880Y-77781195D01*
X140284404Y-77857385D01*
X140284404Y-77895480D01*
X140314880Y-77971671D01*
X140345357Y-78009766D01*
X140406309Y-78047861D01*
X140528214Y-78047861D01*
X140589166Y-78085957D01*
X140619642Y-78124052D01*
X140650119Y-78200242D01*
X140650119Y-78352623D01*
X140619642Y-78428814D01*
X140589166Y-78466909D01*
X140528214Y-78505004D01*
X140406309Y-78505004D01*
X140345357Y-78466909D01*
X140314880Y-78428814D01*
X140284404Y-78352623D01*
X140284404Y-78200242D01*
X140314880Y-78124052D01*
X140345357Y-78085957D01*
X140406309Y-78047861D01*
X155656071Y-77705004D02*
X155259880Y-77705004D01*
X155473214Y-78009766D01*
X155381785Y-78009766D01*
X155320833Y-78047861D01*
X155290357Y-78085957D01*
X155259880Y-78162147D01*
X155259880Y-78352623D01*
X155290357Y-78428814D01*
X155320833Y-78466909D01*
X155381785Y-78505004D01*
X155564642Y-78505004D01*
X155625595Y-78466909D01*
X155656071Y-78428814D01*
X155046547Y-77705004D02*
X154650357Y-77705004D01*
X154863690Y-78009766D01*
X154772261Y-78009766D01*
X154711309Y-78047861D01*
X154680833Y-78085957D01*
X154650357Y-78162147D01*
X154650357Y-78352623D01*
X154680833Y-78428814D01*
X154711309Y-78466909D01*
X154772261Y-78505004D01*
X154955119Y-78505004D01*
X155016071Y-78466909D01*
X155046547Y-78428814D01*
G04 #@! TO.C,J102*
X161577380Y-123789285D02*
X162291666Y-123789285D01*
X162434523Y-123741666D01*
X162529761Y-123646428D01*
X162577380Y-123503571D01*
X162577380Y-123408333D01*
X162577380Y-124789285D02*
X162577380Y-124217857D01*
X162577380Y-124503571D02*
X161577380Y-124503571D01*
X161720238Y-124408333D01*
X161815476Y-124313095D01*
X161863095Y-124217857D01*
X161577380Y-125408333D02*
X161577380Y-125503571D01*
X161625000Y-125598809D01*
X161672619Y-125646428D01*
X161767857Y-125694047D01*
X161958333Y-125741666D01*
X162196428Y-125741666D01*
X162386904Y-125694047D01*
X162482142Y-125646428D01*
X162529761Y-125598809D01*
X162577380Y-125503571D01*
X162577380Y-125408333D01*
X162529761Y-125313095D01*
X162482142Y-125265476D01*
X162386904Y-125217857D01*
X162196428Y-125170238D01*
X161958333Y-125170238D01*
X161767857Y-125217857D01*
X161672619Y-125265476D01*
X161625000Y-125313095D01*
X161577380Y-125408333D01*
X161672619Y-126122619D02*
X161625000Y-126170238D01*
X161577380Y-126265476D01*
X161577380Y-126503571D01*
X161625000Y-126598809D01*
X161672619Y-126646428D01*
X161767857Y-126694047D01*
X161863095Y-126694047D01*
X162005952Y-126646428D01*
X162577380Y-126075000D01*
X162577380Y-126694047D01*
D11*
X158085000Y-122475000D02*
X135165000Y-122475000D01*
X158085000Y-125075000D02*
X158085000Y-122475000D01*
X160685000Y-122475000D02*
X159355000Y-122475000D01*
X160685000Y-127675000D02*
X135165000Y-127675000D01*
X135165000Y-127675000D02*
X135165000Y-122475000D01*
X160685000Y-127675000D02*
X160685000Y-125075000D01*
X160685000Y-125075000D02*
X158085000Y-125075000D01*
X160685000Y-123805000D02*
X160685000Y-122475000D01*
G04 #@! TD*
M02*
